<mxfile host="app.diagrams.net" modified="2024-06-23T19:04:47.044Z" agent="Mozilla/5.0 (Macintosh; Intel Mac OS X 10_15_7) AppleWebKit/605.1.15 (KHTML, like Gecko) Version/17.5 Safari/605.1.15" version="24.6.2" etag="Yaapmc2CznRn-hFnu7a-" type="github">
  <diagram name="Pagina-1" id="dn8dLa8uzYAdubss4TBr">
    <mxGraphModel>
      <root>
        <mxCell id="0" />
        <mxCell id="1" parent="0" />
      </root>
    </mxGraphModel>
  </diagram>
</mxfile>
